<?xml version="1.0" encoding="utf-8"?>
<!-- Generator: Adobe Illustrator 23.0.0, SVG Export Plug-In . SVG Version: 6.00 Build 0)  -->
<svg version="1.1" id="Capa_1" xmlns="http://www.w3.org/2000/svg" xmlns:xlink="http://www.w3.org/1999/xlink" x="0px" y="0px"
	 viewBox="0 0 200 200" style="enable-background:new 0 0 200 200;" xml:space="preserve">
<style type="text/css">
	.st0{fill:#73EBFF;}
	.st1{fill:#D8D8D8;}
	.st2{fill:#FFFFFF;}
	.st3{fill:#371A45;}
	.st4{opacity:0.2;}
	.st5{fill:#220F2D;}
	.st6{opacity:0.5;}
</style>
<title>tapCrewIcon</title>
<path class="st0" d="M35,0h130c19.3,0,35,15.7,35,35v130c0,19.3-15.7,35-35,35H35c-19.3,0-35-15.7-35-35V35C0,15.7,15.6,0,35,0z"/>
<path class="st1" d="M152.5,118l-0.1-0.2C152.5,117.8,152.5,117.9,152.5,118z"/>
<path class="st2" d="M160.8,93.5c0,0.3,0.1,0.5,0.1,0.9c0.9,10-0.9,20.1-4.9,29.2c-0.9,2-1.9,3.9-3,5.9c-0.5,0.9-1.1,1.9-1.7,2.8
	c-1.8,2.7-3.8,5.3-5.9,7.7c-1.8,2-3.8,4-5.9,5.7c-2.5,2.1-5.1,4-7.9,5.7c-1,0.6-2,1.2-3,1.7c-19.5,10.5-43,9.7-61.8-2
	C38.9,133.7,30.4,96.8,48,68.8c0.2-0.4,0.5-0.7,0.7-1c3.4-5.3,7.7-10.1,12.5-14.1c0.5-0.5,1.1-0.9,1.7-1.3c1.6-1.2,3.1-2.3,4.8-3.3
	c7.5-4.7,15.9-7.7,24.6-8.9c1.4-0.2,2.7-0.3,4.1-0.4c12.9-0.9,25.8,2.3,36.7,9.1C148.8,58.6,159,75.1,160.8,93.5z"/>
<path class="st3" d="M160.8,93.5c1,10.3-0.6,20.6-4.8,30.1c-0.9,2-1.9,3.9-3,5.9c-0.5,0.9-1.1,1.9-1.7,2.8c-0.5,0.7-0.9,1.3-1.4,2
	c-0.6,0.4-1.3,0.8-1.9,1.2c-43.8,26.3-79.8-11-79.8-11s-16-49.4,27.7-75.7c0.8-0.5,1.6-0.9,2.5-1.4c11-5.6,24.2-5.1,34.6,1.4
	l0.1,0.1C148.8,58.6,159,75.1,160.8,93.5z"/>
<g class="st4">
	<path class="st3" d="M160.9,94.4c0.9,10-0.9,20.1-4.9,29.2c-0.9,2-1.9,3.9-3,5.9c-0.5,0.9-1.1,1.9-1.7,2.8
		c-1.8,2.7-3.8,5.3-5.9,7.7c-1.8,2-3.8,4-5.9,5.7c-2.5,2.1-5.1,4-7.9,5.7c-1,0.6-2,1.2-3,1.7c-19.5,10.5-43,9.7-61.8-2
		c-9.5-5.9-17.1-14.4-22-24.5L160.9,94.4z"/>
</g>
<path class="st3" d="M99.4,160.6c-11.5,0-22.8-3.2-32.5-9.3c-13.6-8.4-23.2-22-26.7-37.8c-3.5-15.8-0.5-32.4,8.4-45.9
	c3.4-5.3,7.7-10.1,12.6-14.1c0.5-0.5,1.1-0.9,1.7-1.3c1.6-1.2,3.1-2.3,4.8-3.3c7.5-4.7,15.9-7.7,24.7-9c1.4-0.2,2.8-0.3,4.1-0.4
	c2.1-0.2,4.2-0.2,6.3-0.1c10.8,0.3,21.3,3.5,30.5,9.3c15.7,9.8,26,26.3,27.7,44.8c1,10.3-0.6,20.7-4.8,30.2c-0.9,2-1.9,4-3,5.9
	c-0.5,0.9-1,1.8-1.7,2.8c-5,7.8-11.8,14.4-19.7,19.2c-1,0.6-2,1.2-3,1.7C119.7,158.1,109.6,160.6,99.4,160.6z M100.7,39.6
	c-1.4,0-2.8,0.1-4.2,0.2c-1.4,0.1-2.7,0.2-4.1,0.4c-8.8,1.3-17.1,4.3-24.6,9c-1.6,1-3.2,2.1-4.7,3.3c-0.6,0.5-1.2,0.9-1.7,1.3
	c-4.8,4-9.1,8.8-12.5,14.1C40,81.4,37,97.8,40.5,113.5c3.4,15.6,13,29.1,26.5,37.5c18.7,11.6,42.2,12.4,61.6,2c1-0.5,2-1.1,3-1.7
	c5.1-3.1,9.7-7,13.7-11.5c2.2-2.4,4.1-5,5.9-7.7c0.6-1,1.2-1.9,1.6-2.7c1.1-1.9,2.1-3.8,3-5.9c4.1-9.5,5.8-19.8,4.8-30
	c-1.8-18.4-12-34.8-27.6-44.6c-9.1-5.7-19.6-8.9-30.3-9.2C102,39.6,101.4,39.6,100.7,39.6z"/>
<path class="st3" d="M99.4,161.6c-11.7,0-23.1-3.3-33.1-9.5c-13.8-8.6-23.6-22.4-27-38.3c-3.6-16.1-0.5-32.9,8.4-46.7
	c3.5-5.4,7.8-10.2,12.7-14.3c0.5-0.5,1.1-0.9,1.7-1.4c1.6-1.2,3.2-2.3,4.8-3.4c3.8-2.4,7.9-4.4,12.1-5.9s8.5-2.6,13-3.2
	c1.4-0.2,2.8-0.3,4.2-0.5c2.1-0.2,4.3-0.2,6.4-0.1c10.9,0.3,21.7,3.6,31,9.5c15.9,9.9,26.4,26.7,28.2,45.5l0,0
	c1,10.5-0.6,21-4.9,30.7c-0.9,2-1.9,4-3,5.9c-0.5,0.9-1.1,1.8-1.7,2.8c-1.8,2.8-3.8,5.4-6,7.9c-4.1,4.5-8.8,8.4-14,11.6
	c-1,0.6-2,1.3-3.1,1.8C120,159,109.8,161.6,99.4,161.6z M100.7,40.6c-1.4,0-2.8,0.1-4.2,0.2c-1.4,0.1-2.7,0.2-4.1,0.4
	c-8.6,1.2-16.8,4.2-24.2,8.8c-1.6,1-3.1,2.1-4.7,3.3c-0.6,0.5-1.2,0.9-1.6,1.3c-4.8,4-8.9,8.6-12.3,13.8C41,81.7,38,97.9,41.4,113.4
	c3.4,15.3,12.8,28.6,26.1,36.9c18.4,11.5,41.6,12.2,60.7,2c1-0.5,2-1.1,3-1.7c2.7-1.6,5.3-3.5,7.7-5.6c2-1.7,4-3.6,5.8-5.6
	c2.1-2.3,4.1-4.9,5.8-7.6c0.6-1,1.2-1.9,1.6-2.7c1.1-1.9,2-3.8,2.9-5.7c4.1-9.3,5.7-19.5,4.7-29.5c-1.7-18.1-11.8-34.2-27.2-43.9
	c-9-5.6-19.3-8.8-29.9-9.1C102,40.7,101.3,40.6,100.7,40.6z"/>
<path class="st3" d="M99.4,161.9c-11.7,0-23.3-3.3-33.2-9.5c-13.9-8.7-23.7-22.5-27.2-38.5c-3.6-16.2-0.5-33.1,8.5-46.9
	c3.5-5.4,7.8-10.2,12.8-14.4c0.5-0.5,1.1-0.9,1.7-1.4c1.6-1.2,3.2-2.3,4.8-3.4c7.7-4.8,16.3-7.9,25.2-9.1c1.4-0.2,2.9-0.3,4.2-0.5
	c2.1-0.2,4.3-0.2,6.4-0.1c11,0.3,21.8,3.6,31.1,9.5c16,10,26.6,26.9,28.4,45.7c1,10.6-0.6,21.2-4.9,30.9c-0.9,2-1.9,4.1-3,5.9
	c-0.5,0.9-1.1,1.8-1.7,2.8c-3.4,5.2-7.4,9.8-12,13.8c-2.5,2.2-5.2,4.1-8.1,5.9c-1,0.6-2.1,1.3-3.1,1.8
	C120.1,159.3,109.8,161.9,99.4,161.9z M100.7,40.9c-1.4,0-2.7,0.1-4.1,0.2s-2.7,0.2-4.1,0.4c-8.5,1.2-16.7,4.1-24.1,8.8
	c-1.6,1-3.1,2.1-4.6,3.2c-0.6,0.5-1.2,0.9-1.6,1.3c-4.8,3.9-8.9,8.6-12.3,13.8c-8.7,13.3-11.6,29.4-8.1,44.8
	c3.4,15.2,12.7,28.5,26,36.7c18.3,11.4,41.3,12.1,60.3,1.9c1-0.5,2-1.1,3-1.7c2.7-1.6,5.2-3.5,7.7-5.5c2-1.7,4-3.6,5.7-5.5
	c2.1-2.3,4.1-4.8,5.8-7.5c0.6-1,1.2-1.9,1.6-2.7c1.1-1.9,2-3.8,2.9-5.7c4.1-9.2,5.7-19.4,4.7-29.4c-1.7-18-11.7-34.1-27-43.7
	c-8.9-5.6-19.2-8.8-29.7-9.1C102,41,101.3,41,100.7,40.9z"/>
<path class="st3" d="M99.4,161.9c-11.7,0-23.3-3.3-33.2-9.5c-13.9-8.7-23.7-22.5-27.2-38.5c-3.6-16.2-0.5-33.1,8.5-46.9
	c3.5-5.4,7.8-10.2,12.8-14.4c0.5-0.5,1.1-0.9,1.7-1.4c1.6-1.2,3.2-2.3,4.8-3.4c7.7-4.8,16.3-7.9,25.2-9.1c1.4-0.2,2.9-0.3,4.2-0.5
	c2.1-0.2,4.3-0.2,6.4-0.1c11,0.3,21.8,3.6,31.1,9.5c16,10,26.6,26.9,28.4,45.7c1,10.6-0.6,21.2-4.9,30.9c-0.9,2-1.9,4.1-3,5.9
	c-0.5,0.9-1.1,1.8-1.7,2.8c-3.4,5.2-7.4,9.8-12,13.8c-2.5,2.2-5.2,4.1-8.1,5.9c-1,0.6-2.1,1.3-3.1,1.8
	C120.1,159.3,109.8,161.9,99.4,161.9z M100.7,40.9c-1.4,0-2.7,0.1-4.1,0.2s-2.7,0.2-4.1,0.4c-8.5,1.2-16.7,4.1-24.1,8.8
	c-1.6,1-3.1,2.1-4.6,3.2c-0.6,0.5-1.2,0.9-1.6,1.3c-4.8,3.9-8.9,8.6-12.3,13.8c-8.7,13.3-11.6,29.4-8.1,44.8
	c3.4,15.2,12.7,28.5,26,36.7c18.3,11.4,41.3,12.1,60.3,1.9c1-0.5,2-1.1,3-1.7c2.7-1.6,5.2-3.5,7.7-5.5c2-1.7,4-3.6,5.7-5.5
	c2.1-2.3,4.1-4.8,5.8-7.5c0.6-1,1.2-1.9,1.6-2.7c1.1-1.9,2-3.8,2.9-5.7c4.1-9.2,5.7-19.4,4.7-29.4c-1.7-18-11.7-34.1-27-43.7
	c-8.9-5.6-19.2-8.8-29.7-9.1C102,41,101.3,41,100.7,40.9z"/>
<path class="st3" d="M99.4,161.9c-11.7,0-23.3-3.3-33.2-9.5c-28.7-18-37.3-55.8-19.3-84.4c0.2-0.3,0.4-0.6,0.6-0.9
	c3.5-5.5,7.8-10.3,12.8-14.4c0.5-0.4,1-0.9,1.7-1.4c1.6-1.3,3.2-2.3,4.8-3.4c7.7-4.8,16.3-7.9,25.2-9.1c1.5-0.2,2.9-0.4,4.2-0.5
	c2.1-0.2,4.3-0.2,6.4-0.1c1.7,0.1,3.4,0.2,5.2,0.4c9.2,1.1,18.1,4.1,26,9.1c16,10,26.6,26.9,28.4,45.7l0,0c1,10.6-0.6,21.2-4.9,30.9
	c-0.9,2-2,4.1-3,5.9c-0.5,0.9-1,1.8-1.7,2.8c-0.5,0.7-0.9,1.4-1.4,2.1c-1.4,2-3,4-4.6,5.8c-0.9,1-1.9,2-2.9,3s-2,2-3.1,2.8
	c-2.5,2.2-5.2,4.1-8.1,5.9c-1,0.6-2.1,1.3-3.1,1.8C120.1,159.3,109.8,161.9,99.4,161.9z M100.7,40.9c-1.4,0-2.8,0.1-4.1,0.2
	s-2.7,0.2-4.1,0.4c-8.5,1.2-16.7,4.1-24.1,8.8c-1.6,1-3.1,2-4.6,3.2c-0.6,0.5-1.2,0.9-1.6,1.3c-4.8,3.9-8.9,8.6-12.3,13.8
	c-8.7,13.3-11.6,29.4-8.1,44.8c3.4,15.2,12.7,28.5,26,36.7c18.3,11.4,41.3,12.1,60.3,1.9c1-0.5,2-1.1,3-1.7c2.7-1.6,5.2-3.5,7.7-5.5
	c1-0.9,2-1.8,3-2.7c0.9-0.9,1.9-1.9,2.7-2.9c1.6-1.8,3-3.6,4.5-5.5c0.5-0.6,0.9-1.3,1.3-2c0.6-1,1.2-1.9,1.6-2.7
	c1.1-1.9,2-3.8,2.9-5.7c4.1-9.2,5.7-19.4,4.7-29.4c-1.7-18-11.7-34.1-27-43.6c-7.5-4.7-15.9-7.7-24.8-8.7c-1.6-0.2-3.3-0.3-4.9-0.4
	C102,41,101.3,41,100.7,40.9z"/>
<path class="st3" d="M111.7,152.4c-8,0-15.9-1.6-23.3-4.7c-9.8-4.1-18.8-10-26.4-17.4l-1.4-1.4l-0.6-1.9c-3-10.2-3.9-20.9-3-31.4
	c1-11.5,6.6-39.6,35.3-53.2c0.5-0.2,1.2-0.5,1.7-0.8c7.9-3.1,16.6-3.4,24.7-1c1,0.3,2,0.6,3,1c4.2,1.6,8.4,3.5,12.1,5.9
	c16,10,26.6,26.9,28.4,45.7l0,0c1,10.6-0.6,21.2-4.9,30.9c-0.9,2-2,4.1-3,5.9c-0.5,0.9-1,1.8-1.7,2.8c-0.5,0.7-0.9,1.4-1.4,2.1
	c-1.4,2-3,4-4.6,5.8c-0.9,1-1.9,2-2.9,3l-0.2,0.2l-0.2,0.1C131.7,150.3,121,152.4,111.7,152.4z M63.2,127.4l0.9,0.9
	c7.3,7.1,16,12.7,25.4,16.7c11.6,4.8,30.1,8.2,52.2-3.4c0.9-0.9,1.8-1.8,2.6-2.7c1.6-1.8,3-3.6,4.5-5.5c0.5-0.6,0.9-1.3,1.3-2
	c0.6-1,1.2-1.9,1.6-2.7c1.1-1.9,2-3.8,2.9-5.7c4.1-9.2,5.7-19.4,4.7-29.4l0,0c-1.7-18-11.7-34.1-27-43.6c-3.7-2.3-7.6-4.2-11.6-5.6
	c-0.9-0.3-1.9-0.6-2.8-0.9c-7.5-2.3-15.6-2-22.8,0.9c-0.5,0.2-1.1,0.5-1.6,0.7C66.2,57.9,60.9,84.8,59.9,95.9
	c-0.9,10.2,0,20.5,2.9,30.3L63.2,127.4z"/>
<path class="st5" d="M158.5,116.8c-0.7,2.3-1.6,4.6-2.5,6.8c-0.9,2-1.9,3.9-3,5.9c-0.5,0.9-1.1,1.9-1.7,2.8c-0.5,0.7-0.9,1.3-1.4,2
	c-0.6,0.4-1.3,0.8-1.9,1.2c-43.8,26.3-79.8-11-79.8-11s-6.3-19.4-0.3-40.3v0.4c0.3,14.1,8.1,27,20.4,33.8c15.8,8.8,41,16.2,69-0.8
	C157.8,117.3,158.2,117,158.5,116.8z"/>
<path class="st2" d="M73.3,144.9c-1.9,1.1-12,3.4-12,3.4s-9.1-5.5-13.8-13.5c-0.9-1.7-1.6-3.6-2.1-5.5c-1.7-5.6-3.4-13.1-3.4-13.1
	s3.4-5.9,8.7-9c8-4.8,19.5-0.3,25.8,10.1c0.6,1.1,1.3,2.2,1.7,3.4C82.3,130.3,80.5,140.6,73.3,144.9z"/>
<g class="st4">
	<path class="st3" d="M73.3,144.9c-1.9,1.1-12,3.4-12,3.4s-9.1-5.5-13.8-13.5c-0.9-1.7-1.6-3.6-2.1-5.5l24.4-6.8c0,0,5,3.4,8.4-1.8
		C82.3,130.3,80.5,140.6,73.3,144.9z"/>
</g>
<path class="st3" d="M61.1,149.9l-0.5-0.3c-0.4-0.2-9.4-5.9-14.3-14.1c-2.3-3.8-5.3-17.4-5.7-19l-0.1-0.5l0.3-0.5
	c0.2-0.2,3.8-6.2,9.1-9.5c8.7-5.2,21.1-0.5,27.7,10.6c3.1,5,4.5,10.9,4,16.7c-0.6,5.6-3.4,10.2-7.6,12.7c-2,1.2-10.6,3.2-12.4,3.6
	L61.1,149.9z M43.6,116.6c1,4.5,3.5,14.9,5.2,17.6c3.9,6.6,11,11.5,12.9,12.7c3.9-0.9,9.8-2.4,10.9-3.1c3.4-2.1,5.7-5.9,6.3-10.6
	c0.5-5.2-0.8-10.5-3.6-15c-5.9-9.7-16.6-14-23.8-9.6C47.4,110.9,44.4,115.2,43.6,116.6z"/>
<ellipse transform="matrix(0.8569 -0.5155 0.5155 0.8569 -58.6523 47.6225)" class="st2" cx="56.4" cy="129.4" rx="15.5" ry="20.1"/>
<g class="st4">
	<path class="st3" d="M66.8,146.7c-7,4.2-17,0.6-22.9-8.1c6.1,3,12.7,3.2,18,0c5.2-3.2,8.2-9.1,8.4-15.9
		C75.3,132,73.8,142.4,66.8,146.7z"/>
</g>
<path class="st3" d="M60.3,149.9c-6.6,0-13.9-4.3-18.4-11.7c-6.1-10.2-4.6-22.4,3.4-27.1c3.9-2.3,8.8-2.6,13.7-0.7
	c5,2.1,9.2,5.8,11.9,10.4l0,0c2.9,4.6,4.1,10,3.7,15.4c-0.6,5.2-3.1,9.4-7,11.7C65.4,149.2,62.9,149.9,60.3,149.9z M52.6,112
	c-2,0-4.1,0.5-5.8,1.6c-6.6,4-7.7,14.4-2.4,23.2s15,12.7,21.7,8.8c3.1-1.9,5.2-5.3,5.6-9.6c0.5-4.8-0.7-9.5-3.3-13.6l0,0
	c-2.4-4.1-6.1-7.4-10.5-9.2C56.2,112.3,54.4,112,52.6,112z"/>
<path class="st3" d="M60.3,149.9c-6.6,0-13.9-4.3-18.4-11.7c-6.1-10.2-4.6-22.4,3.4-27.1c3.9-2.3,8.8-2.6,13.7-0.7
	c5,2.1,9.2,5.8,11.9,10.4l0,0c2.9,4.6,4.1,10,3.7,15.4c-0.6,5.2-3.1,9.4-7,11.7C65.4,149.2,62.9,149.9,60.3,149.9z M52.6,112
	c-2,0-4.1,0.5-5.8,1.6c-6.6,4-7.7,14.4-2.4,23.2s15,12.7,21.7,8.8c3.1-1.9,5.2-5.3,5.6-9.6c0.5-4.8-0.7-9.5-3.3-13.6l0,0
	c-2.4-4.1-6.1-7.4-10.5-9.2C56.2,112.3,54.4,112,52.6,112z"/>
<g class="st6">
	<path class="st2" d="M85.8,68.9c0,0,22.6-9.7,40.9-3.3h0.1c3.8,1.3,7.3,3.7,9.9,6.7c2.7,3.1,5,6.6,6.7,10.4
		c4.5,9.1,4.8,14.1,4.8,14.1c2.9-7.3,3.2-14.2-0.5-21.8c-0.4-0.7-0.8-1.5-1.2-2.3c-0.1-0.2-0.2-0.3-0.3-0.5l0,0
		c-1.3-1.9-2.7-3.7-4.1-5.4c-5.2-6.1-13.7-13.2-24.7-13.1C97.1,53.9,84.6,68.3,85.8,68.9z"/>
</g>
<g class="st6">
	<ellipse transform="matrix(0.9835 -0.1807 0.1807 0.9835 -16.7662 17.0401)" class="st2" cx="85.1" cy="100.5" rx="7.2" ry="8.3"/>
</g>
<g class="st6">
	
		<ellipse transform="matrix(0.9961 -8.854413e-02 8.854413e-02 0.9961 -9.8653 8.2414)" class="st2" cx="88" cy="115.3" rx="3" ry="3.4"/>
</g>
</svg>
